<?xml version="1.0" encoding="UTF-8" standalone="no"?>
<!-- Created with Inkscape (http://www.inkscape.org/) -->
<svg id="svg1872" xmlns:rdf="http://www.w3.org/1999/02/22-rdf-syntax-ns#" xmlns="http://www.w3.org/2000/svg" height="48px" width="48px" xmlns:cc="http://web.resource.org/cc/" xmlns:dc="http://purl.org/dc/elements/1.1/">
 <metadata id="metadata1877">
  <rdf:RDF>
   <cc:Work rdf:about="">
    <dc:format>image/svg+xml</dc:format>
    <dc:type rdf:resource="http://purl.org/dc/dcmitype/StillImage"/>
    <dc:title>About</dc:title>
    <dc:creator>
     <cc:Agent>
      <dc:title>Luca Ferretti &lt;elle.uca@libero.it&gt;</dc:title>
     </cc:Agent>
    </dc:creator>
    <dc:subject>
     <rdf:Bag>
      <rdf:li>help</rdf:li>
      <rdf:li>about</rdf:li>
     </rdf:Bag>
    </dc:subject>
    <dc:description>A star</dc:description>
    <cc:license rdf:resource="http://creativecommons.org/licenses/LGPL/2.1/"/>
   </cc:Work>
   <cc:License rdf:about="http://creativecommons.org/licenses/LGPL/2.1/">
    <cc:permits rdf:resource="http://web.resource.org/cc/Reproduction"/>
    <cc:permits rdf:resource="http://web.resource.org/cc/Distribution"/>
    <cc:requires rdf:resource="http://web.resource.org/cc/Notice"/>
    <cc:permits rdf:resource="http://web.resource.org/cc/DerivativeWorks"/>
    <cc:requires rdf:resource="http://web.resource.org/cc/ShareAlike"/>
    <cc:requires rdf:resource="http://web.resource.org/cc/SourceCode"/>
   </cc:License>
  </rdf:RDF>
 </metadata>
 <g id="layer1">
  <rect id="rect3653" style="fill:none" rx="0" ry="0" height="48.329" width="48" y="0" x="0"/>
  <path id="path5425" style="stroke-linejoin:round;fill-rule:evenodd;stroke:#fff;stroke-width:8.4523;fill:#fff" d="m24.132 5.1288l4.868 10.16 11.129 1.749-8.158 7.77 1.775 11.126-9.91-5.359-10.033 5.127 2.034-11.082-7.9759-7.957 11.167-1.49 5.104-10.044z" transform="matrix(1.1782 0 0 1.1837 -4.2711 -1.0801)"/>
  <path id="path1880" style="stroke-linejoin:round;fill-rule:evenodd;stroke:#000;stroke-width:1.6905" transform="matrix(1.1781 0 0 1.1692 -4.2694 -1.0044)" d="m24.132 5.1288l4.868 10.16 11.129 1.749-8.158 7.77 1.775 11.126-9.91-5.359-10.033 5.127 2.034-11.082-7.9759-7.957 11.167-1.49 5.104-10.044z"/>
 </g>
</svg>
