<?xml version="1.0" encoding="UTF-8" standalone="no"?>
<!-- Generator: Adobe Illustrator 9.0, SVG Export Plug-In  -->
<svg id="svg2" xmlns:rdf="http://www.w3.org/1999/02/22-rdf-syntax-ns#" xmlns="http://www.w3.org/2000/svg" sodipodi:docname="go-down.svg" xml:space="preserve" height="48px" sodipodi:version="0.32" width="48px" xmlns:cc="http://web.resource.org/cc/" xmlns:dc="http://purl.org/dc/elements/1.1/" viewBox="0 0 48 48" sodipodi:docbase="/home/luca/Desktop/black-and-white/scalable/actions" xmlns:sodipodi="http://inkscape.sourceforge.net/DTD/sodipodi-0.dtd"><metadata id="metadata17"><rdf:RDF><cc:Work rdf:about=""><dc:format>image/svg+xml</dc:format><dc:type rdf:resource="http://purl.org/dc/dcmitype/StillImage"/></cc:Work></rdf:RDF></metadata><sodipodi:namedview id="base" bordercolor="#666666" pagecolor="#ffffff" borderopacity="1.0" showgrid="true"/>
	<rect id="rect3313" style="fill:none" height="48" width="48" y="0" x="0"/><g id="g5500" transform="matrix(1 0 0 -1 0 48.25)"><path id="path4046" sodipodi:nodetypes="ccccccccccccc" style="stroke:#fff;stroke-width:8" d="m41 26c0.3 0 0.588-0.532 0-1l-16-16c-1-1-1-1-2 0l-16 16c-0.5984 0.425-0.2 1 0 1h10v13s0 1 1 1h12c1 0 1-1 1-1v-13h10z"/><path id="path9" sodipodi:nodetypes="ccccccccccccc" d="m41 26c0.3 0 0.588-0.532 0-1l-16-16c-1-1-1-1-2 0l-16 16c-0.5984 0.425-0.2 1 0 1h10v13s0 1 1 1h12c1 0 1-1 1-1v-13h10z"/></g>
</svg>
