<?xml version="1.0" encoding="UTF-8" standalone="no"?>
<!-- Created with Inkscape (http://www.inkscape.org/) -->
<svg id="svg1306" xmlns:rdf="http://www.w3.org/1999/02/22-rdf-syntax-ns#" xmlns="http://www.w3.org/2000/svg" height="48px" width="48px" xmlns:cc="http://web.resource.org/cc/" xmlns:dc="http://purl.org/dc/elements/1.1/">
 <metadata id="metadata1311">
  <rdf:RDF>
   <cc:Work rdf:about="">
    <dc:format>image/svg+xml</dc:format>
    <dc:type rdf:resource="http://purl.org/dc/dcmitype/StillImage"/>
   </cc:Work>
  </rdf:RDF>
 </metadata>
 <g id="layer1">
  <rect id="rect5680" style="fill:none" ry="0" height="48" width="48" y="0" x="0"/>
  <rect id="rect4952" style="stroke-linejoin:round;fill-rule:evenodd;stroke:#fff;stroke-linecap:round;stroke-width:8;fill:#fff" ry="1.384" height="34.95" width="38" y="5" x="5"/>
  <path id="rect1314" style="fill-rule:evenodd" d="m8 5h32c2 0 3 1 3 3v32h-38v-32c0-2 1-3 3-3z"/>
  <path id="rect2044" style="fill:#fff;fill-rule:evenodd" d="m10 9h28c0.592 0 1 0.4075 1 1v25c0 0.592-0.408 1-1 1h-28c-0.5925 0-1-0.408-1-1v-25c0-0.5925 0.4075-1 1-1z"/>
  <path id="path2772" style="stroke:#000;stroke-width:6;fill:none" d="m11 14h26"/>
  <path id="path1874" style="stroke:#000;stroke-width:4;fill:none" d="m16 27h16"/>
  <path id="path2762" style="stroke:#000;stroke-width:4;fill:none" d="m24 19v16"/>
 </g>
</svg>
