<?xml version="1.0" encoding="UTF-8" standalone="no"?>
<!-- Generator: Adobe Illustrator 9.0, SVG Export Plug-In  -->
<svg id="svg2" xmlns:rdf="http://www.w3.org/1999/02/22-rdf-syntax-ns#" xmlns="http://www.w3.org/2000/svg" sodipodi:docname="document-save.svg" xml:space="preserve" height="48" sodipodi:version="0.32" width="48" version="1.0" xmlns:cc="http://web.resource.org/cc/" xmlns:dc="http://purl.org/dc/elements/1.1/" viewBox="0 0 48 48" sodipodi:docbase="/home/luca/Artwork/blackwhite-icon-theme/scalable/actions" xmlns:sodipodi="http://inkscape.sourceforge.net/DTD/sodipodi-0.dtd"><metadata id="metadata25"><rdf:RDF><cc:Work rdf:about=""><dc:format>image/svg+xml</dc:format><dc:type rdf:resource="http://purl.org/dc/dcmitype/StillImage"/></cc:Work></rdf:RDF></metadata><sodipodi:namedview id="base" bordercolor="#666666" pagecolor="#ffffff" borderopacity="1.0" showgrid="true"/>
	<path id="path4837" sodipodi:nodetypes="cccccc" style="stroke-linejoin:round;stroke:#fff;stroke-linecap:round;stroke-width:14;fill:none" d="m40 39h-28l-4-4v-27h32v31z"/><path id="path9" sodipodi:nodetypes="cccccc" style="stroke-linejoin:round;stroke:#000;stroke-linecap:round;stroke-width:6;fill:none" d="m40 39h-28l-4-4v-27h32v31z"/><path id="path11" d="m39.8 38.7h-27.8l-3.8-3.8v-26.1h31.6v29.9z"/><path id="path13" sodipodi:nodetypes="ccccccccc" style="fill:#fff" d="m33 37c0 1.1-0.9 2-2 2h-17c-1.1 0-2-0.9-2-2v-9c0-1.1 0.9-2 2-2h17c1.1 0 2 0.9 2 2v9z"/><path id="path15" sodipodi:nodetypes="ccccc" d="m21 37h-6v-9h6v9z"/><path id="path17" sodipodi:nodetypes="ccccc" style="fill:#fff" d="m38 22h-28v-13h28v13z"/>
	<g id="crop_x0020_marks" style="stroke:#000">
		<path id="path20" style="fill:none" d="m48 48h-48v-48h48v48z"/>
	</g>
</svg>
