<?xml version="1.0" encoding="UTF-8" standalone="no"?>
<!-- Created with Inkscape (http://www.inkscape.org/) -->
<svg id="svg2" xmlns:rdf="http://www.w3.org/1999/02/22-rdf-syntax-ns#" xmlns="http://www.w3.org/2000/svg" height="48" width="48" version="1.0" xmlns:cc="http://creativecommons.org/ns#" xmlns:dc="http://purl.org/dc/elements/1.1/">
 <metadata id="metadata7">
  <rdf:RDF>
   <cc:Work rdf:about="">
    <dc:format>image/svg+xml</dc:format>
    <dc:type rdf:resource="http://purl.org/dc/dcmitype/StillImage"/>
    <dc:title>Media Playlist Repeat</dc:title>
    <dc:date>December 2008</dc:date>
    <dc:creator>
     <cc:Agent>
      <dc:title>Luca Ferretti</dc:title>
     </cc:Agent>
    </dc:creator>
    <dc:subject>
     <rdf:Bag>
      <rdf:li>media</rdf:li>
      <rdf:li>playlist</rdf:li>
      <rdf:li>play</rdf:li>
      <rdf:li>order</rdf:li>
      <rdf:li>repeat</rdf:li>
      <rdf:li/>
     </rdf:Bag>
    </dc:subject>
    <dc:description>A &quot;circular&quot; arrow</dc:description>
   </cc:Work>
  </rdf:RDF>
 </metadata>
 <rect id="rect2382" style="stroke-width:0;fill:none" height="48" width="48" y="0" x="0"/>
 <g id="layer1">
  <path id="path3157" style="stroke-linejoin:round;fill-rule:evenodd;stroke:#fff;stroke-linecap:round;stroke-width:10;fill:#fff" d="m7 34.91s-2 0-2-2v-25c0-2.0002 2-2.0002 2-2.0002h34s2 0 2 2v25c0 2-2 2-2 2h-11v6c-1 2-2 1-3-1l-5-8 5-8c1-2 2-3 3-1v6h7v-17h-26v17h6l-3 3 3 3h-10z"/>
  <path id="path2385" style="stroke-linejoin:round;fill-rule:evenodd;stroke:#000;stroke-linecap:round;stroke-width:2" d="m7 34.91s-2 0-2-2v-25c0-2.0002 2-2.0002 2-2.0002h34s2 0 2 2v25c0 2-2 2-2 2h-11v6c-1 2-2 1-3-1l-5-8 5-8c1-2 2-3 3-1v6h7v-17h-26v17h6l-3 3 3 3h-10z"/>
 </g>
</svg>
