<?xml version="1.0" encoding="UTF-8" standalone="no"?>
<!-- Generator: Adobe Illustrator 9.0, SVG Export Plug-In  -->
<svg id="svg2" xmlns:rdf="http://www.w3.org/1999/02/22-rdf-syntax-ns#" xmlns="http://www.w3.org/2000/svg" sodipodi:docname="user-home.svg" xml:space="preserve" height="48" sodipodi:version="0.32" width="48" version="1.0" xmlns:cc="http://web.resource.org/cc/" xmlns:dc="http://purl.org/dc/elements/1.1/" viewBox="0 0 48 48" sodipodi:docbase="/home/luca/Artwork/blackwhite-icon-theme/scalable/places" xmlns:sodipodi="http://inkscape.sourceforge.net/DTD/sodipodi-0.dtd"><metadata id="metadata23"><rdf:RDF><cc:Work rdf:about=""><dc:format>image/svg+xml</dc:format><dc:type rdf:resource="http://purl.org/dc/dcmitype/StillImage"/><dc:title>Home Folder Icon</dc:title><dc:coverage/><dc:description>The user&apos;s $HOME directory</dc:description><cc:license rdf:resource="http://creativecommons.org/licenses/LGPL/2.1/"/><dc:subject><rdf:Bag><rdf:li>folder</rdf:li><rdf:li>directory</rdf:li><rdf:li>home</rdf:li><rdf:li>user</rdf:li></rdf:Bag></dc:subject></cc:Work><cc:License rdf:about="http://creativecommons.org/licenses/LGPL/2.1/"><cc:permits rdf:resource="http://web.resource.org/cc/Reproduction"/><cc:permits rdf:resource="http://web.resource.org/cc/Distribution"/><cc:requires rdf:resource="http://web.resource.org/cc/Notice"/><cc:permits rdf:resource="http://web.resource.org/cc/DerivativeWorks"/><cc:requires rdf:resource="http://web.resource.org/cc/ShareAlike"/><cc:requires rdf:resource="http://web.resource.org/cc/SourceCode"/></cc:License></rdf:RDF></metadata><sodipodi:namedview id="base" bordercolor="#666666" pagecolor="#ffffff" borderopacity="1.0" showgrid="true" showguides="true"/>
	<rect id="rect1333" style="fill:none" rx=".046648" ry="0" height="48" width="48" y="0" x="0"/><path id="path2208" sodipodi:nodetypes="csscccccccccsccccccccc" style="fill-rule:evenodd;stroke:#fff;stroke-width:8;fill:#fff" d="m5 22s-1 0.6-1 1c0 0.2-0.1 0.8 0 1 0.3 0.6 1.3 1 2 1h2v14c0 1.1 1 2 2 2h28c1.1 0 2-0.9 2-2v-14h2c0.8 0 1.7-0.3 2-1 0.1-0.2 0-0.8 0-1 0-0.5-0.5-0.6-1-1 0 0-3.1-2.3-4-3v-9c0-1.2-0.8-2-2-2h-6c-1 0-2 1-2 2-1.9-1.6-3.6-3.3-3.6-3.3s-1.7-0.7-2.6 0l-17.8 15.3z"/><path id="path9" sodipodi:nodetypes="csscccccccccscccccccccc" style="fill-rule:evenodd" d="m5 22s-1 0.6-1 1c0 0.2-0.1 0.8 0 1 0.3 0.6 1.3 1 2 1h2v14c0 1.1 1 2 2 2h28c1.1 0 2-0.9 2-2v-14h2c0.8 0 1.7-0.3 2-1 0.1-0.2 0-0.8 0-1 0-0.5-0.5-0.6-1-1 0 0-3.1-2.3-4-3v-9c0-1.2-0.8-2-2-2h-6c-1 0-2 1-2 2-1.9-1.6-3.6-3.3-3.6-3.3l0.1 0.1c-0.7-0.7-1.8-0.8-2.7-0.1l-17.8 15.3z"/><path id="path13" sodipodi:nodetypes="ccccccc" style="fill:#fff;fill-rule:evenodd" d="m36 12s0-1-1-1h-2c-1 0-1 1-1 1v1.8l3.9 2.9 0.1-4.7z"/><path id="path15" sodipodi:nodetypes="ccccc" style="fill:#fff;fill-rule:evenodd" d="m12 25v12h24v-12h-24z"/>
	<g id="crop_x0020_marks" style="stroke:#000">
		<path id="path18" style="fill:none" d="m48 48h-48v-48h48v48z"/>
	</g>
</svg>
